<svg viewBox="0 0 384 384" xmlns="http://www.w3.org/2000/svg" fill-rule="evenodd" clip-rule="evenodd" stroke-linejoin="round" stroke-miterlimit="1.414"><path d="M45.2 366.4c0 4.587-1.76 7.973-5.28 10.16-3.52 2.187-8.28 3.28-14.28 3.28s-10.614-.8-13.84-2.4c-3.227-1.6-4.84-4.507-4.84-8.72 0-3.36 1.92-6.533 5.76-9.52-1.974-1.333-2.96-3.36-2.96-6.08 0-1.067.8-2.827 2.4-5.28l.72-1.12c-3.627-2.613-5.44-6.467-5.44-11.56 0-5.093 1.533-8.787 4.6-11.08 3.066-2.293 7.133-3.44 12.2-3.44 2.293 0 4.56.267 6.8.8l1.28.24 12.88-.4v8.56l-6-.48c1.173 1.813 1.76 3.627 1.76 5.44 0 5.333-1.36 9.013-4.08 11.04-2.72 2.027-6.987 3.04-12.8 3.04-1.227 0-2.32-.107-3.28-.32-.534 1.387-.8 2.52-.8 3.4 0 .88.453 1.48 1.36 1.8.906.32 3.04.507 6.4.56 6.72.053 11.306.947 13.76 2.68 2.453 1.733 3.68 4.867 3.68 9.4zm-27.68 1.2c0 2.293 2.813 3.44 8.44 3.44 5.626 0 8.44-1.333 8.44-4 0-1.44-.48-2.36-1.44-2.76-.96-.4-2.987-.627-6.08-.68l-7.2-.56c-1.44 1.44-2.16 2.96-2.16 4.56zM55.3 326c2.826-3.68 7.546-5.52 14.16-5.52 6.613 0 11.333 1.827 14.16 5.48 2.826 3.653 4.24 8.787 4.24 15.4 0 14.027-6.134 21.04-18.4 21.04-12.267 0-18.4-7.013-18.4-21.04 0-6.613 1.413-11.733 4.24-15.36zm148.78 7.92v16.64c.106 1.28.32 2.173.64 2.68.32.507.986.867 2 1.08l-.32 8.08c-2.72 0-4.894-.187-6.52-.56-1.627-.373-3.267-1.12-4.92-2.24-3.84 1.867-7.76 2.8-11.76 2.8-8.267 0-12.4-4.373-12.4-13.12 0-4.267 1.146-7.293 3.44-9.08 2.293-1.787 5.813-2.84 10.56-3.16l8.56-.64v-2.48c0-1.653-.374-2.787-1.12-3.4-.747-.613-1.947-.92-3.6-.92l-15.04.64-.32-7.44c5.706-1.547 11.133-2.32 16.28-2.32 5.146 0 8.853 1.067 11.12 3.2 2.266 2.133 3.4 5.547 3.4 10.24zm-94.6-12.48h9.84v9.12h-9.84v16.4c0 1.6.04 2.733.12 3.4.08.667.373 1.24.88 1.72.506.48 1.293.72 2.36.72l6.08-.16.48 8.56c-3.574.8-6.294 1.2-8.16 1.2-4.8 0-8.08-1.08-9.84-3.24-1.76-2.16-2.64-6.147-2.64-11.96v-16.64h-4.72v-9.12h4.72v-11.12h10.72v11.12zM316.7 326c-5.814 0-8.72 2.027-8.72 6.08 0 1.867.666 3.187 2 3.96 1.333.773 4.373 1.573 9.12 2.4 4.746.827 8.106 1.987 10.08 3.48 1.973 1.493 2.96 4.293 2.96 8.4s-1.32 7.12-3.96 9.04c-2.64 1.92-6.494 2.88-11.56 2.88-3.307 0-7.2-.373-11.68-1.12l-2.4-.4.32-5.2c6.08.907 10.666 1.36 13.76 1.36 3.093 0 5.453-.493 7.08-1.48 1.626-.987 2.44-2.64 2.44-4.96s-.694-3.893-2.08-4.72c-1.387-.827-4.427-1.613-9.12-2.36-4.694-.747-8.027-1.84-10-3.28-1.974-1.44-2.96-4.107-2.96-8s1.373-6.773 4.12-8.64c2.746-1.867 6.173-2.8 10.28-2.8 3.253 0 7.333.373 12.24 1.12l2.24.4-.16 5.12c-5.92-.853-10.587-1.28-14-1.28zm-90.2 35.44h-10.72v-40h10.64v2.24c3.68-2.133 6.826-3.2 9.44-3.2 4.32 0 7.653 1.253 10 3.76 4.906-2.507 9.386-3.76 13.44-3.76 5.28 0 8.946 1.533 11 4.6 2.053 3.067 3.08 7.96 3.08 14.68v21.68h-10.72v-21.36c0-3.413-.374-5.933-1.12-7.56-.747-1.627-2.24-2.44-4.48-2.44-1.707 0-3.787.373-6.24 1.12l-1.2.4c.213 4 .32 7.04.32 9.12v20.72h-10.72v-20.56c0-3.947-.347-6.733-1.04-8.36-.694-1.627-2.214-2.44-4.56-2.44-2.08 0-4.134.373-6.16 1.12l-.96.32v29.92zm-88.04 0h-10.72v-56h10.72v17.92c3.68-1.92 6.986-2.88 9.92-2.88 5.333 0 9.013 1.573 11.04 4.72 2.026 3.147 3.04 8 3.04 14.56v21.68h-10.72V340c0-3.36-.4-5.853-1.2-7.48-.8-1.627-2.4-2.44-4.8-2.44-2.08 0-4.16.32-6.24.96l-1.04.32v30.08zm210.34 0h-6V304h6v19.68c4.266-2.027 8.373-3.04 12.32-3.04 5.333 0 8.92 1.44 10.76 4.32 1.84 2.88 2.76 8 2.76 15.36v21.12h-6v-20.96c0-5.547-.547-9.347-1.64-11.4-1.094-2.053-3.4-3.08-6.92-3.08-3.36 0-6.614.613-9.76 1.84l-1.52.56v33.04zm-57.64 0h-6v-40h6v40zm-105.08-16.96c-2.987.267-4.48 1.867-4.48 4.8s1.306 4.4 3.92 4.4c2.026 0 4.24-.32 6.64-.96l1.2-.32v-8.56l-7.28.64zM63.54 350.4c1.12 1.92 3.093 2.88 5.92 2.88 2.826 0 4.786-.96 5.88-2.88 1.093-1.92 1.64-4.933 1.64-9.04 0-4.107-.547-7.093-1.64-8.96-1.094-1.867-3.054-2.8-5.88-2.8-2.827 0-4.787.933-5.88 2.8-1.094 1.867-1.64 4.853-1.64 8.96 0 4.107.533 7.12 1.6 9.04zm-45.38-15.52c0 3.893 2.04 5.84 6.12 5.84s6.12-1.96 6.12-5.88-2.04-5.88-6.12-5.88-6.12 1.973-6.12 5.92zm273-22.48h-6v-6.96h6v6.96zM280 288h-40V8h40v280zM128 168h8v88h8v32H72v-32h8v-88h8v-8h40v8zm232 32v16h8v24h8v48h-88v-48h8v-24h8v-16h8v-84c0-1.656-1.792-3-4-3-.159 0-.315.007-.469.02L306 112h14V76c0-5.33 3.476-9.849 8.284-11.414l.563-6.752A2.008 2.008 0 0 1 330.84 56h.16V36h2v20h.16c1.035 0 1.907.803 1.993 1.834l.563 6.752C340.524 66.151 344 70.67 344 76v36h14l-1.531 1.02A5.64 5.64 0 0 0 356 113c-2.199 0-3.986 1.334-4 2.981V200h8zm-128 88h-80V186.962h8V104h8V80h8V64h8s2.758-4.523 4-8c1.241-3.475 1.999-23.982 2-24h4c.001.018.828 20.356 2 24 1.151 3.577 4 8 4 8h8v16h8v24h8v82.962h8V288zM62 64l2 224H8l2-224 6-1.846V48h16V32h2L35 .591h2L38 32h2v16h16v14.154L62 64z"/></svg>